<?xml version="1.0" encoding="UTF-8"?>
<svg version="1.1" xmlns="http://www.w3.org/2000/svg" width="64" height="50">
<path d="M0 0 C3.63 0 7.26 0 11 0 C11 1.98 11 3.96 11 6 C12.98203709 5.38416344 14.9605772 4.75706166 16.9375 4.125 C18.03964844 3.77695312 19.14179688 3.42890625 20.27734375 3.0703125 C23.12878804 2.29975705 23.12878804 2.29975705 24 0 C28.95 0 33.9 0 39 0 C39.495 0.99 39.495 0.99 40 2 C41.98559792 2.72442394 41.98559792 2.72442394 44.3125 3.3125 C47.3908475 4.30757093 49.02702462 5.02241066 51.5625 7.125 C53.59037396 11.18074792 53.75838494 14.55238832 53 19 C51.5 22.125 51.5 22.125 49 25 C48.46375 25.63421875 47.9275 26.2684375 47.375 26.921875 C44.35417787 30.06856472 42.31480091 31.85830466 37.8828125 32.3359375 C35.76511921 32.28007509 33.64775703 32.15598675 31.5390625 31.953125 C30.70117188 31.96859375 29.86328125 31.9840625 29 32 C28.34 32.99 27.68 33.98 27 35 C24.3984375 35.51171875 24.3984375 35.51171875 21.375 35.6875 C19.87066406 35.78611328 19.87066406 35.78611328 18.3359375 35.88671875 C17.56507812 35.92410156 16.79421875 35.96148437 16 36 C15.67 37.65 15.34 39.3 15 41 C23.40776117 39.40082929 31.16994071 37.45979364 39 34 C40.66455944 33.32808923 42.33071608 32.66008591 44 32 C37.47028902 39.13571664 27.32020922 42.21435244 18 44 C16.33391013 44.04384447 14.66570133 44.05671743 13 44 C12.67 45.98 12.34 47.96 12 50 C8.37 50 4.74 50 1 50 C1.495 47.03 1.495 47.03 2 44 C0.783125 43.773125 -0.43375 43.54625 -1.6875 43.3125 C-6.04602911 42.17448263 -8.42814556 40.85778165 -11 37 C-12.0149507 32.49857742 -11.93493767 28.69284573 -9.6796875 24.609375 C-7.92371961 22.25111861 -6.07801943 20.07801943 -4 18 C-3.46130485 15.35629499 -2.96386435 12.71938641 -2.5 10.0625 C-1.1310241 2.26204819 -1.1310241 2.26204819 0 0 Z M34 5 C33.34 8.3 32.68 11.6 32 15 C35.96 15 39.92 15 44 15 C43.18619792 17.734375 42.37239583 20.46875 41.55859375 23.203125 C41.00750164 25.96243932 41.06210391 27.3912824 42 30 C42.96355244 28.92130607 43.92061417 27.83681257 44.875 26.75 C45.40867187 26.14671875 45.94234375 25.5434375 46.4921875 24.921875 C48.74544975 22.04984125 49.88723058 19.74105621 50.4375 16.125 C49.83470979 11.81935565 48.07366204 10.00535844 45 7 C41.29464947 4.90980227 38.21050044 4.80416277 34 5 Z M15.5 6.25 C14.03046875 6.59804687 14.03046875 6.59804687 12.53125 6.953125 C9.90042804 7.77522502 9.90042804 7.77522502 8.65625 9.921875 C7.84943432 12.11357776 7.84943432 12.11357776 8 15 C11.96 15 15.92 15 20 15 C19.67 16.65 19.34 18.3 19 20 C19.33 19.34 19.66 18.68 20 18 C23.63 18 27.26 18 31 18 C31.33 18.66 31.66 19.32 32 20 C32 19.01 32 18.02 32 17 C28.37 17 24.74 17 21 17 C21.66 13.04 22.32 9.08 23 5 C20.36016048 5 18.06287667 5.61602524 15.5 6.25 Z M-4.87109375 22.17578125 C-7.27552823 26.06114769 -7.46230233 29.53107743 -7 34 C-4.59272465 37.16384761 -3.02257696 38.70458888 0.8125 39.8125 C1.534375 39.874375 2.25625 39.93625 3 40 C3.66 38.02 4.32 36.04 5 34 C8.96 33.67 12.92 33.34 17 33 C16.67 32.01 16.34 31.02 16 30 C16 30.66 16 31.32 16 32 C9.07 31.505 9.07 31.505 2 31 C3.32 30.01 4.64 29.02 6 28 C6.90987411 25.28586374 6.90987411 25.28586374 7.25 22.3125 C7.39953125 21.31863281 7.5490625 20.32476563 7.703125 19.30078125 C7.80109375 18.54152344 7.8990625 17.78226563 8 17 C1.46275584 16.21102226 -0.84634742 16.94470768 -4.87109375 22.17578125 Z M18 21 C19 25 19 25 19 25 Z M30 22 C31 24 31 24 31 24 Z M17 26 C18 29 18 29 18 29 Z M29 26 C30 29 30 29 30 29 Z " fill="#EB891A" transform="translate(11,0)"/>
<path d="M0 0 C3.63 0 7.26 0 11 0 C10.35812082 5.13503344 9.31727753 9.9943454 8 15 C11.96 15 15.92 15 20 15 C19.52434234 17.45906037 19.04463948 19.91720993 18.5625 22.375 C18.42779297 23.07367187 18.29308594 23.77234375 18.15429688 24.4921875 C17.11328125 29.7734375 17.11328125 29.7734375 16 32 C11.05 32 6.1 32 1 32 C2.32 30.68 3.64 29.36 5 28 C6.10894997 25.21347882 6.10894997 25.21347882 6.75 22.25 C6.99234375 21.26515625 7.2346875 20.2803125 7.484375 19.265625 C7.65453125 18.51796875 7.8246875 17.7703125 8 17 C2.82513142 17.03133992 2.82513142 17.03133992 -1.609375 19.296875 C-4.64364191 22.90229804 -5.88797315 25.76770461 -6.3125 30.4375 C-6.30964833 33.99383152 -6.30964833 33.99383152 -4.3125 36.3125 C-1.94135685 38.04279365 0.22280319 39.07426773 3 40 C3 41.32 3 42.64 3 44 C-1.55645077 43.33489716 -5.16872516 42.54287336 -9.0625 40 C-11.44025332 36.31831744 -11.76462373 33.90478845 -11.5703125 29.578125 C-10.50766788 24.77438905 -7.40803174 21.40803174 -4 18 C-3.46130485 15.35629499 -2.96386435 12.71938641 -2.5 10.0625 C-1.1310241 2.26204819 -1.1310241 2.26204819 0 0 Z " fill="#0093DC" transform="translate(11,0)"/>
<path d="M0 0 C3.63 0 7.26 0 11 0 C10.44606641 6.09326949 9.07044316 11.23876685 7 17 C3.37 17.33 -0.26 17.66 -4 18 C-4.33 19.65 -4.66 21.3 -5 23 C3.40776117 21.40082929 11.16994071 19.45979364 19 16 C20.66455944 15.32808923 22.33071608 14.66008591 24 14 C17.47028902 21.13571664 7.32020922 24.21435244 -2 26 C-3.66608987 26.04384447 -5.33429867 26.05671743 -7 26 C-7.33 27.98 -7.66 29.96 -8 32 C-11.63 32 -15.26 32 -19 32 C-18.40245849 28.21557045 -17.7232801 24.44963605 -17 20.6875 C-16.835 19.82511719 -16.67 18.96273437 -16.5 18.07421875 C-16 16 -16 16 -15 15 C-12.98035801 14.92755947 -10.95832876 14.91622812 -8.9375 14.9375 C-7.28041016 14.95103516 -7.28041016 14.95103516 -5.58984375 14.96484375 C-4.73519531 14.97644531 -3.88054688 14.98804688 -3 15 C-2.87625 13.824375 -2.7525 12.64875 -2.625 11.4375 C-2.13564065 7.45879574 -1.1944795 3.82233441 0 0 Z " fill="#67B82D" transform="translate(31,18)"/>
<path d="M0 0 C0.66 0.33 1.32 0.66 2 1 C-7.40734343 7.45602 -17.49055902 11.71421253 -29 12 C-29 11.34 -29 10.68 -29 10 C-27.44152344 9.63648438 -27.44152344 9.63648438 -25.8515625 9.265625 C-12.32703994 6.1550524 -12.32703994 6.1550524 0 0 Z " fill="#0092DE" transform="translate(53,32)"/>
</svg>
